<?xml version="1.0" encoding="utf-8"?><!DOCTYPE svg PUBLIC "-//W3C//DTD SVG 1.1//EN" "http://www.w3.org/Graphics/SVG/1.1/DTD/svg11.dtd"><svg version="1.1" id="Layer_1" xmlns="http://www.w3.org/2000/svg" xmlns:xlink="http://www.w3.org/1999/xlink" x="0px" y="0px" width="150px" height="150px" viewBox="0 0 150 150" enable-background="new 0 0 150 150" xml:space="preserve"><title>Shape</title><desc>Created with Sketch.</desc><g id="Welcome"><path id="Shape" fill="#222222" d="M74.997,46.011c-4.903,0.006-8.875,3.979-8.883,8.883c0,4.894,3.985,8.879,8.883,8.879c4.903-0.008,8.875-3.979,8.88-8.879C83.879,49.989,79.9,46.017,74.997,46.011L74.997,46.011z M74.997,76.338c-11.838-0.01-21.437-9.606-21.448-21.444c0.008-11.846,9.604-21.442,21.448-21.455c11.845,0.01,21.451,9.609,21.456,21.455C96.438,66.734,86.838,76.33,74.997,76.338L74.997,76.338z M66.32,93.836c-4.412-1.002-8.624-2.748-12.455-5.154c-2.939-1.85-3.823-5.734-1.973-8.668c1.848-2.941,5.728-3.822,8.666-1.975c8.834,5.523,20.052,5.523,28.886,0c1.901-1.195,4.297-1.287,6.284-0.242c1.984,1.049,3.26,3.078,3.342,5.324c0.087,2.24-1.027,4.363-2.93,5.561c-3.834,2.406-8.049,4.148-12.457,5.154l11.994,12c2.451,2.457,2.446,6.436-0.011,8.893c-2.456,2.445-6.434,2.445-8.886-0.012l-11.779-11.789l-11.785,11.789c-2.455,2.457-6.436,2.457-8.889,0c-2.454-2.455-2.454-6.434,0-8.891L66.32,93.836L66.32,93.836z"/></g></svg>